<svg xmlns="http://www.w3.org/2000/svg" width="36.128" height="28.634" viewBox="0 0 36.128 28.634">
  <g id="ic-Ticket" transform="translate(-0.936 -0.683)">
    <path id="Shape" d="M5.025,22a2.082,2.082,0,0,1-1.99-1.551l-.642-2.64a.778.778,0,0,1,.439-.923A2.752,2.752,0,0,0,4.35,13.718a2.846,2.846,0,0,0-2.8-2.177H1.517a.859.859,0,0,1-.809-.627L.067,8.274A1.852,1.852,0,0,1,.3,6.756a2.071,2.071,0,0,1,1.282-.891L26.543.059a2.039,2.039,0,0,1,2.462,1.484l.641,2.64a.811.811,0,0,1-.438.924,2.822,2.822,0,0,0,1.282,5.345.859.859,0,0,1,.809.626l.641,2.64a2.139,2.139,0,0,1-.2,1.518,2.076,2.076,0,0,1-1.282.891L5.5,21.934l-.064.013-.007,0-.009,0A1.922,1.922,0,0,1,5.025,22Zm12.816-8.579L8.634,15.566l.4,1.617,9.208-2.145ZM26.956,1.7a.47.47,0,0,0-.076.006L19.932,3.325,23.069,16.16l6.948-1.616a.422.422,0,0,0,.215-.142l.021-.023,0-.005a.47.47,0,0,0,.065-.226L29.814,12.1a4.58,4.58,0,0,1-3.743-3.4,4.4,4.4,0,0,1,1.753-4.652l-.506-2.079A.374.374,0,0,0,26.956,1.7ZM17.032,9.923,7.824,12.068l.405,1.617,9.208-2.145Zm-.877-3.5L6.947,8.571l.4,1.617,9.208-2.145Z" transform="translate(5.885 0.683) rotate(13)" fill="#8dc53f"/>
  </g>
</svg>
