<svg id="ic-Conf" xmlns="http://www.w3.org/2000/svg" viewBox="0 0 19 20">
  <defs>
    <style>
      .cls-1 {
        fill: #f49401;
      }
    </style>
  </defs>
  <g id="Group">
    <g id="Group-2" data-name="Group">
      <path id="Shape" class="cls-1" d="M14.012,20a3.082,3.082,0,0,1-2.85-1.86H1.187a1.163,1.163,0,1,1,0-2.326h9.975a3.114,3.114,0,0,1,5.7,0h.95a1.163,1.163,0,1,1,0,2.326h-.95A3.084,3.084,0,0,1,14.012,20ZM4.988,13.023a3.083,3.083,0,0,1-2.851-1.86h-.95a1.163,1.163,0,1,1,0-2.326h.95a3.114,3.114,0,0,1,5.7,0h9.975a1.163,1.163,0,1,1,0,2.326H7.838A3.083,3.083,0,0,1,4.988,13.023Zm9.024-6.977a3.082,3.082,0,0,1-2.85-1.86H1.187a1.163,1.163,0,1,1,0-2.326h9.975a3.114,3.114,0,0,1,5.7,0h.95a1.163,1.163,0,1,1,0,2.326h-.95A3.083,3.083,0,0,1,14.012,6.046Z"/>
    </g>
  </g>
</svg>
