<svg xmlns="http://www.w3.org/2000/svg" viewBox="0 0 19.375 19.375">
  <defs>
    <style>
      .cls-1 {
        fill: #f49401;
      }
    </style>
  </defs>
  <g id="ic-Chat" transform="translate(-0.313 -0.313)">
    <g id="Group">
      <path id="Path" class="cls-1" d="M7.25,10.563A2.241,2.241,0,0,1,9.5,8.313h7.125V1.75A1.735,1.735,0,0,0,14.938,0H1.688A1.7,1.7,0,0,0,0,1.75V10a1.735,1.735,0,0,0,1.688,1.75h.875v2.813A.47.47,0,0,0,2.875,15c.063,0,.125.063.188.063a.477.477,0,0,0,.313-.125l3.063-3.125H7.25Z" transform="translate(0.313 0.313)"/>
      <path id="Path-2" data-name="Path" class="cls-1" d="M9.875,0H1.25A1.268,1.268,0,0,0,0,1.313V6.688A1.309,1.309,0,0,0,1.25,8H6.688l1.938,2c.063.125.188.125.313.125a.23.23,0,0,0,.188-.062.47.47,0,0,0,.313-.437V7.938h.438a1.268,1.268,0,0,0,1.25-1.312V1.25A1.254,1.254,0,0,0,9.875,0Z" transform="translate(8.563 9.563)"/>
    </g>
  </g>
</svg>
