<svg xmlns="http://www.w3.org/2000/svg" width="19.94" height="20.987" viewBox="0 0 19.94 20.987">
  <g id="ic-Date" transform="translate(-0.052)">
    <path id="Shape" d="M18.457,20.987H1.484A1.469,1.469,0,0,1,0,19.536V3.99A1.469,1.469,0,0,1,1.484,2.539H3.116V1.45A1.468,1.468,0,0,1,4.6,0h.059A1.469,1.469,0,0,1,6.143,1.45V2.539H13.8V1.45A1.469,1.469,0,0,1,15.282,0h.059a1.468,1.468,0,0,1,1.483,1.45V2.539h1.633A1.469,1.469,0,0,1,19.94,3.99V19.536A1.469,1.469,0,0,1,18.457,20.987ZM2.493,6.919V18.695H17.448V6.919Z" transform="translate(0.053)" fill="#9b9b9b"/>
    <path id="Path" d="M.237,2.987H2.819a.235.235,0,0,0,.237-.232V.232A.235.235,0,0,0,2.819,0H.237A.235.235,0,0,0,0,.232V2.755A.235.235,0,0,0,.237,2.987Z" transform="translate(4.34 9.261)" fill="#9b9b9b"/>
    <path id="Path-2" data-name="Path" d="M.237,2.987H2.819a.235.235,0,0,0,.237-.232V.232A.235.235,0,0,0,2.819,0H.237A.235.235,0,0,0,0,.232V2.755A.235.235,0,0,0,.237,2.987Z" transform="translate(8.495 9.261)" fill="#9b9b9b"/>
    <path id="Path-3" data-name="Path" d="M.237,2.987H2.819a.235.235,0,0,0,.237-.232V.232A.235.235,0,0,0,2.819,0H.237A.235.235,0,0,0,0,.232V2.755A.235.235,0,0,0,.237,2.987Z" transform="translate(12.649 9.261)" fill="#9b9b9b"/>
    <path id="Path-4" data-name="Path" d="M.237,2.987H2.819a.235.235,0,0,0,.237-.232V.232A.235.235,0,0,0,2.819,0H.237A.235.235,0,0,0,0,.232V2.755A.235.235,0,0,0,.237,2.987Z" transform="translate(4.34 13.321)" fill="#9b9b9b"/>
    <path id="Path-5" data-name="Path" d="M.237,2.987H2.819a.235.235,0,0,0,.237-.232V.232A.235.235,0,0,0,2.819,0H.237A.235.235,0,0,0,0,.232V2.755A.235.235,0,0,0,.237,2.987Z" transform="translate(8.495 13.321)" fill="#9b9b9b"/>
    <path id="Path-6" data-name="Path" d="M.237,2.987H2.819a.235.235,0,0,0,.237-.232V.232A.235.235,0,0,0,2.819,0H.237A.235.235,0,0,0,0,.232V2.755A.235.235,0,0,0,.237,2.987Z" transform="translate(12.649 13.321)" fill="#9b9b9b"/>
  </g>
</svg>
