<svg id="ic-Card" xmlns="http://www.w3.org/2000/svg" width="29.97" height="20.828" viewBox="0 0 29.97 20.828">
  <path id="Shape" d="M25.34,20.828H4.631A4.636,4.636,0,0,1,0,16.2V4.631A4.636,4.636,0,0,1,4.631,0H25.34a4.636,4.636,0,0,1,4.631,4.63V16.2A4.636,4.636,0,0,1,25.34,20.828ZM1.7,9.149V16.2a2.933,2.933,0,0,0,2.93,2.93H25.34a2.934,2.934,0,0,0,2.93-2.93V9.149ZM4.631,1.7A2.933,2.933,0,0,0,1.7,4.631v.229H28.27V4.631A2.933,2.933,0,0,0,25.34,1.7Zm8.448,15.168-8.446-.022a1.01,1.01,0,0,1,.009-2.02l8.45.023a1.009,1.009,0,0,1-.013,2.019Zm9.756-.171a2.293,2.293,0,0,1-1.573-.623,2.3,2.3,0,1,1,0-3.352A2.3,2.3,0,1,1,22.835,16.7Zm-9.756-3.429-8.446-.022a1.009,1.009,0,0,1,.005-2.019h.006l8.447.022a1.01,1.01,0,0,1-.013,2.02Z" transform="translate(0 0)" fill="#8dc53f"/>
</svg>
