<svg xmlns="http://www.w3.org/2000/svg" width="15.967" height="13.956" viewBox="0 0 15.967 13.956">
  <g id="ic-Send" transform="translate(-0.009 -0.019)">
    <path id="Shape" d="M12.2,13.955a1.793,1.793,0,0,1-1.142-.414L8.738,11.489,6.87,13.028a1.117,1.117,0,0,1-.66.243c-.62,0-1.079-.644-1.284-1.2-.618-1.817-.87-2.6-.972-2.931l-.481-.188c-.823-.32-2.066-.8-2.435-.986A1.448,1.448,0,0,1,0,6.657,1.391,1.391,0,0,1,1.038,5.405c1.728-.7,3.485-1.438,5.185-2.15,2.565-1.075,5.216-2.187,7.825-3.2l-.075.073A1.976,1.976,0,0,1,14.654,0,1.3,1.3,0,0,1,15.7.463a1.484,1.484,0,0,1,.221,1.278c-.02.1-2.022,10.056-2.244,11.068A1.413,1.413,0,0,1,12.2,13.955ZM8.738,9.436h0l3.29,3c.1-.514.522-2.593.964-4.793l0-.021.015-.073c.5-2.48,1.013-5.044,1.178-5.854L2.166,6.63l-.2.083-.029.012c.441.18.905.362,1.354.538.469.184.954.374,1.412.562.649-.4,6.881-3.958,7.028-3.958a.161.161,0,0,1,.15.147c0,.19-3.191,3.289-4.392,4.455l-.006.006-.387.377-.6,2.418L8.737,9.437Z" transform="translate(0.009 0.019)" fill="#fff"/>
  </g>
</svg>
