<svg id="ic-menu" xmlns="http://www.w3.org/2000/svg" viewBox="0 0 18.998 20">
  <defs>
    <style>
      .cls-1 {
        fill: #f49401;
      }
    </style>
  </defs>
  <path id="Path" class="cls-1" d="M0,0V4.337H.7V1.157A1.3,1.3,0,0,0,0,0Z" transform="translate(13.151 6.019)"/>
  <path id="Path-2" data-name="Path" class="cls-1" d="M0,2.238a.352.352,0,0,0,.349.356A.352.352,0,0,0,.7,2.238V0H0Z" transform="translate(13.151 11.527)"/>
  <path id="Path-3" data-name="Path" class="cls-1" d="M0,0V4.147A.352.352,0,0,0,.349,4.5.352.352,0,0,0,.7,4.147V0A2.388,2.388,0,0,1,.349.026,2.388,2.388,0,0,1,0,0Z" transform="translate(8.535 9.619)"/>
  <path id="Shape" class="cls-1" d="M15.654,20H2.113A2.137,2.137,0,0,1,0,17.845v-.1a2.02,2.02,0,0,0,.267.018H.882a2.1,2.1,0,0,0,2.073-2.113,2.112,2.112,0,0,0-1.133-1.883,2.131,2.131,0,0,0,0-3.766,2.131,2.131,0,0,0,0-3.766A2.112,2.112,0,0,0,2.955,4.352,2.1,2.1,0,0,0,.882,2.238H.266A2.056,2.056,0,0,0,0,2.256v-.1A2.137,2.137,0,0,1,2.113,0h13.54a2.137,2.137,0,0,1,2.113,2.155V17.845A2.137,2.137,0,0,1,15.654,20ZM11.345,4.707a.581.581,0,0,0-.575.586v8.473a1.5,1.5,0,1,0,3,0V7.176A2.448,2.448,0,0,0,11.345,4.707Zm-5.539,0a.581.581,0,0,0-.574.586V7.176a2.476,2.476,0,0,0,.922,1.938v4.652a1.5,1.5,0,1,0,3,0V9.113a2.477,2.477,0,0,0,.923-1.938V5.293a.574.574,0,1,0-1.148,0V7.176a1.3,1.3,0,0,1-.7,1.157V5.293a.575.575,0,1,0-1.149,0V8.332a1.3,1.3,0,0,1-.7-1.157V5.293A.581.581,0,0,0,5.806,4.707Z" transform="translate(1.231 0)"/>
  <path id="Path-4" data-name="Path" class="cls-1" d="M.923,1.883h1.19A.934.934,0,0,0,3.037.941.934.934,0,0,0,2.113,0H.923A.934.934,0,0,0,0,.941.934.934,0,0,0,.923,1.883Z" transform="translate(0 7.176)"/>
  <path id="Path-5" data-name="Path" class="cls-1" d="M.923,1.883h1.19A.934.934,0,0,0,3.037.941.934.934,0,0,0,2.113,0H.923A.933.933,0,0,0,0,.941.934.934,0,0,0,.923,1.883Z" transform="translate(0 3.41)"/>
  <path id="Path-6" data-name="Path" class="cls-1" d="M.923,1.883h1.19A.934.934,0,0,0,3.037.941.934.934,0,0,0,2.113,0H.923A.933.933,0,0,0,0,.941.934.934,0,0,0,.923,1.883Z" transform="translate(0 10.941)"/>
  <path id="Path-7" data-name="Path" class="cls-1" d="M3.037.941A.934.934,0,0,0,2.113,0H.923A.934.934,0,0,0,0,.941a.933.933,0,0,0,.923.941h1.19A.934.934,0,0,0,3.037.941Z" transform="translate(0 14.707)"/>
</svg>
