<svg xmlns="http://www.w3.org/2000/svg" width="14.818" height="19.615" viewBox="0 0 14.818 19.615">
  <g id="ic-Delete" transform="translate(-0.106 -0.192)">
    <g id="Group">
      <path id="Shape" d="M13.544,5.615h0V5.577H1.356A1.828,1.828,0,0,1,.006,3.654,1.861,1.861,0,0,1,1.881,1.923H4.394V1.231A1.217,1.217,0,0,1,5.593,0H9.231a1.217,1.217,0,0,1,1.2,1.231V2h2.587a1.826,1.826,0,0,1,1.8,1.847,1.825,1.825,0,0,1-1.273,1.768ZM5.557,1.538v.385H9.194V1.538a.324.324,0,0,0-.3-.307h-3a.324.324,0,0,0-.3.307Z" transform="translate(0.106 0.192)" fill="#9b9b9b"/>
      <path id="Path" d="M0,0V10.885a1.524,1.524,0,0,0,1.5,1.538h9.075a1.524,1.524,0,0,0,1.5-1.538V0Z" transform="translate(1.462 7.385)" fill="#9b9b9b"/>
    </g>
  </g>
</svg>
