<svg xmlns="http://www.w3.org/2000/svg" viewBox="0 0 39.71 32.698">
  <defs>
    <style>
      .cls-1 {
        fill: #bfbfbf;
      }
    </style>
  </defs>
  <g id="ic-Camera" transform="translate(-0.145 -0.151)">
    <path id="Shape" class="cls-1" d="M36.837,32.7H2.872A2.867,2.867,0,0,1,0,29.842V7.425A2.867,2.867,0,0,1,2.872,4.569h7.307l.929-2.886C11.555.234,12.306,0,13.931,0H25.779C27.4,0,28.156.234,28.6,1.683l.93,2.886h7.306A2.867,2.867,0,0,1,39.71,7.425V29.842A2.868,2.868,0,0,1,36.837,32.7ZM19.855,9.638a9.5,9.5,0,1,0,9.551,9.5A9.534,9.534,0,0,0,19.855,9.638Zm0,15.912a6.417,6.417,0,1,1,6.455-6.416A6.442,6.442,0,0,1,19.855,25.55Z" transform="translate(0.145 0.151)"/>
  </g>
</svg>
