<svg xmlns="http://www.w3.org/2000/svg" width="18.951" height="19.75" viewBox="0 0 18.951 19.75">
  <g id="ic-Settings" transform="translate(-0.026 -0.125)">
    <path id="Shape" d="M10.742,19.75H8.167a1,1,0,0,1-.992-.916l-.064-.875a2.3,2.3,0,0,0-1.2-1.854c-.02-.01-.045-.025-.069-.04s-.056-.033-.078-.044A2.324,2.324,0,0,0,4.586,15.7a2.5,2.5,0,0,0-1.042.233l-.8.375a1.05,1.05,0,0,1-.451.1.978.978,0,0,1-.858-.5L.144,13.73a.968.968,0,0,1,.3-1.313l.739-.5A2.4,2.4,0,0,0,2.213,9.9V9.854a2.423,2.423,0,0,0-1.034-2.02l-.739-.5a1,1,0,0,1-.3-1.312L1.432,3.812a1.056,1.056,0,0,1,.886-.494.951.951,0,0,1,.424.1l.823.4A2.417,2.417,0,0,0,4.6,4.045,2.339,2.339,0,0,0,5.781,3.73c.02-.01.045-.025.069-.039s.057-.033.079-.044a2.31,2.31,0,0,0,1.2-1.854L7.2.917A.972.972,0,0,1,8.187,0h2.6a1,1,0,0,1,.992.917l.064.875a2.306,2.306,0,0,0,1.2,1.854c.021.011.048.027.075.043s.052.03.072.041a2.324,2.324,0,0,0,1.173.316,2.5,2.5,0,0,0,1.043-.233l.8-.375a1.052,1.052,0,0,1,.451-.1.963.963,0,0,1,.858.5l1.288,2.188a.956.956,0,0,1-.3,1.312l-.739.5a2.39,2.39,0,0,0-1.035,2.02V9.9a2.425,2.425,0,0,0,1.035,2.021l.739.5a.927.927,0,0,1,.253,1.292l-1.288,2.209a1.054,1.054,0,0,1-.885.494.948.948,0,0,1-.424-.1l-.8-.375a2.412,2.412,0,0,0-1.034-.233,2.337,2.337,0,0,0-1.183.317c-.022.011-.051.028-.078.044s-.049.029-.069.04a2.3,2.3,0,0,0-1.2,1.854l-.064.875A.972.972,0,0,1,10.742,19.75ZM9.475,6.167a3.709,3.709,0,1,0,3.758,3.708A3.737,3.737,0,0,0,9.475,6.167Z" transform="translate(0.024 0.125)" fill="#f49401"/>
  </g>
</svg>
